<?xml version="1.0" encoding="utf-8"?>
<!-- Generator: Adobe Illustrator 23.0.1, SVG Export Plug-In . SVG Version: 6.00 Build 0)  -->
<svg version="1.1" id="Layer_1" xmlns="http://www.w3.org/2000/svg" xmlns:xlink="http://www.w3.org/1999/xlink" x="0px" y="0px"
	 viewBox="0 0 1473.96 668.57" style="enable-background:new 0 0 1473.96 668.57;" xml:space="preserve">
<style type="text/css">
	.st0{fill:#FFFFFF;}
</style>
<g>
	<path class="st0" d="M346.68,111.37l41.49,4.7l-24.89,212.7l-41.21-4.7l5.26-45.64l-67.49-79.94l2.77,136.08l-41.49,1.11
		l-4.7-223.77l41.77-0.83l0.55,26.28l2.49-1.94l72.74,86.3L346.68,111.37z"/>
	<path class="st0" d="M415.82,110.26l41.49,2.49l-11.06,198.32l-41.49-2.21L415.82,110.26z"/>
	<path class="st0" d="M625.76,239.99c0,0,0,0,40.38,11.06c-11.89,40.66-46.74,73.02-88.79,79.11c-47.02,6.92-92.66-15.49-104-64.17
		c-11.34-48.68,9.68-107.87,50.89-136.92c37.62-26.55,89.62-22.68,128.62-1.38l-20.19,36.51c-24.06-12.72-56.43-17.98-80.77-3.32
		c-27.94,16.87-42.32,55.04-39.28,86.57c3.04,32.64,29.04,46.19,59.19,41.49c26-4.15,46.19-24.34,54.21-48.96
		C626.03,239.99,626.03,239.99,625.76,239.99C625.76,239.99,626.03,239.99,625.76,239.99z"/>
	<path class="st0" d="M811.9,143.46c17.98,38.17,10.23,87.68-21.85,116.17c-25.17,22.4-62.79,25.17-88.51,1.94
		c-61.4-55.32-9.68-186.15,78.28-153.51l-14.11,37.62l30.7-26C802.5,126.86,807.75,134.88,811.9,143.46
		C816.05,152.31,807.75,134.88,811.9,143.46z M812.18,289.22l1.38,41.49l-132.77,5.26l-1.38-41.49L812.18,289.22z M779.26,194.35
		c2.21-16.87-3.04-34.02-14.11-47.3c-39.55-12.17-59.19,42.32-44.53,71.64C739.16,256.31,775.39,223.95,779.26,194.35
		C780.09,188.82,778.43,200.16,779.26,194.35z"/>
	<path class="st0" d="M1039.26,75.69l87.68,242.85l-39.28,14.38l-18.53-51.17l-93.49,15.21l-25.72,62.79l-38.72-15.77l16.04-39
		l-94.87,15.49l-6.64-41.21l10.23-1.66l8.58-162.36l41.49,2.21L878,270.69l67.77-11.06l61.41-149.64l-7.19-20.19L1039.26,75.69z
		 M1054.75,241.92l-26.55-73.57l-34.02,83.53L1054.75,241.92z"/>
	<path class="st0" d="M1215.45,205.14c15.49,6.36,31.26,11.62,45.64,20.19c24.89,16.04,34.57,49.79,15.49,74.13
		c-16.32,21.02-45.64,26.55-70.81,25.17c-36.51-1.94-70.53-25.72-79.94-61.96l40.38-10.51c4.98,19.91,24.89,30.7,44.26,30.98
		c8.57,0,50.62-7.47,29.87-21.57c-6.92-6.36-18.81-9.4-27.11-12.45c-13-4.98-26.28-9.96-37.62-17.98
		c-52.55-37.06-21.85-112.3,37.34-116.17c35.13-2.49,79.94,8.02,94.87,43.98l-38.45,16.32c-9.96-17.98-35.13-20.19-53.38-18.81
		c-11.06,0.83-23.23,6.64-25.45,18.81C1188.89,192.41,1201.34,199.33,1215.45,205.14z"/>
	<path class="st0" d="M252.7,383.69l7,188.87l-32.79,1.31l-7-185.15l-48.75,7.65l-5.03-32.57l134-20.77l5.03,32.57L252.7,383.69z"/>
	<path class="st0" d="M382.76,440.74c14.21,30.17,8.09,69.3-17.27,91.81c-19.89,17.71-49.62,19.89-69.95,1.53
		c-48.53-43.72-7.65-147.12,61.86-121.32l-11.15,29.73l24.26-20.55C375.32,427.62,379.48,433.96,382.76,440.74
		C386.04,447.74,379.48,433.96,382.76,440.74z M382.98,555.94l1.09,32.79l-104.93,4.15l-1.09-32.79L382.98,555.94z M356.96,480.96
		c1.75-13.33-2.4-26.89-11.15-37.38c-31.26-9.62-46.78,33.45-35.19,56.62C325.27,529.93,353.9,504.35,356.96,480.96
		C357.62,476.59,356.31,485.55,356.96,480.96z"/>
	<path class="st0" d="M529.65,430.25c16.83,24.48,11.15,57.05-9.4,77.38c-19.67,19.46-48.09,26.23-74.98,26.89l-2.19,48.53
		l-33.01-1.53l2.4-48.75c-5.25-0.66-10.49-1.53-15.52-2.4l5.9-32.35c3.72,0.66,7.43,1.31,11.15,1.75l2.62-56.83
		c-2.62,0.87-5.25,1.75-7.65,2.62l-11.37-31.04C437.4,400.3,501.67,389.15,529.65,430.25C532.05,433.96,527.25,426.75,529.65,430.25
		z M506.7,464.79c2.19-29.95-36.29-31.04-56.83-28.85l-3.06,65.58C469.1,500.64,504.73,492.55,506.7,464.79
		C506.92,461.07,506.48,468.5,506.7,464.79z"/>
	<path class="st0" d="M654.9,440.74c14.21,30.17,8.09,69.3-17.27,91.81c-19.89,17.71-49.62,19.89-69.95,1.53
		c-48.53-43.72-7.65-147.12,61.86-121.32l-11.15,29.73l24.26-20.55C647.47,427.62,651.62,433.96,654.9,440.74
		C658.18,447.74,651.62,433.96,654.9,440.74z M655.12,555.94l1.09,32.79l-104.93,4.15l-1.09-32.79L655.12,555.94z M629.11,480.96
		c1.75-13.33-2.4-26.89-11.15-37.38c-31.26-9.62-46.78,33.45-35.19,56.62C597.41,529.93,626.05,504.35,629.11,480.96
		C629.76,476.59,628.45,485.55,629.11,480.96z"/>
	<path class="st0" d="M809.23,444.46c15.08,31.04-5.03,74.1-39.57,80.88l39.13,34.76l-21.86,24.48l-60.11-53.56l2.4,60.55
		l-33.01,1.31l-2.19-59.9c-6.78,0.44-13.33,0.66-20.11,1.09l-1.09-33.01c6.56-0.22,13.33-0.66,19.89-0.87l-1.53-38.69
		c-0.87,0.44-1.97,1.09-2.84,1.97l-19.24-26.89C706.49,410.14,783.65,391.34,809.23,444.46C811.2,448.61,807.26,440.3,809.23,444.46
		z M781.47,468.5c1.53-28.2-40.44-26.67-57.93-21.64l1.97,50.93C746.71,495.83,779.72,497.79,781.47,468.5
		C781.47,466.75,781.25,472.22,781.47,468.5z"/>
	<path class="st0" d="M944.1,517.03c0,0,0,0,31.92,8.74c-9.4,32.13-36.94,57.71-70.17,62.52c-37.16,5.46-73.23-12.24-82.19-50.71
		s7.65-85.25,40.22-108.21c29.73-20.99,70.83-17.92,101.65-1.09l-15.96,28.85c-19.02-10.05-44.59-14.21-63.83-2.62
		c-22.08,13.33-33.45,43.5-31.04,68.42c2.4,25.79,22.95,36.51,46.78,32.79c20.55-3.28,36.51-19.24,42.85-38.69
		C944.32,517.03,944.32,517.03,944.1,517.03C944.1,517.03,944.32,517.03,944.1,517.03z"/>
	<path class="st0" d="M1091.21,440.74c14.21,30.17,8.09,69.3-17.27,91.81c-19.89,17.71-49.62,19.89-69.95,1.53
		c-48.53-43.72-7.65-147.12,61.86-121.32l-11.15,29.73l24.26-20.55C1083.78,427.62,1087.93,433.96,1091.21,440.74
		C1094.49,447.74,1087.93,433.96,1091.21,440.74z M1091.43,555.94l1.09,32.79l-104.93,4.15l-1.09-32.79L1091.43,555.94z
		 M1065.41,480.96c1.75-13.33-2.4-26.89-11.15-37.38c-31.26-9.62-46.78,33.45-35.19,56.62
		C1033.72,529.93,1062.35,504.35,1065.41,480.96C1066.07,476.59,1064.76,485.55,1065.41,480.96z"/>
	<path class="st0" d="M1259.53,392.87l-65.58,197.18l-31.26-10.49l3.72-10.93l-67.55-146.24l29.95-13.77l52.68,114.33l46.78-140.56
		L1259.53,392.87z"/>
</g>
</svg>
