<?xml version="1.0" encoding="utf-8"?>
<!-- Generator: Adobe Illustrator 21.1.0, SVG Export Plug-In . SVG Version: 6.00 Build 0)  -->
<svg version="1.1" id="Layer_1" xmlns="http://www.w3.org/2000/svg" xmlns:xlink="http://www.w3.org/1999/xlink" x="0px" y="0px"
	 viewBox="0 0 1090 215" style="enable-background:new 0 0 1090 215;" xml:space="preserve">
<style type="text/css">
	.st0{fill-rule:evenodd;clip-rule:evenodd;fill:#1C2136;}
	.st1{fill:#1C2136;}
	.st2{fill-rule:evenodd;clip-rule:evenodd;fill:#27E66C;}
</style>
<g>
	<g>
		<polyline class="st0" points="1025.1,167.6 1056.6,70.8 1050.1,70.8 1022.6,158.2 994.1,70.8 989.3,70.8 960.8,158.2 933.2,70.8 
			926.7,70.8 958.2,167.6 963,167.6 991.7,79.8 1020.4,167.6 1025.1,167.6 		"/>
		<path class="st0" d="M828.5,117.8c0.6-18.8,13.2-41.3,37.3-41.3c25.6,0,37.5,22.9,37.5,41.3H828.5L828.5,117.8z M909.5,121.2
			c0-26.5-14.8-50-43.5-50c-25.3,0-44.1,22.3-44.1,50c0,29.1,18.8,50.2,46,50.2c15.7,0,26.6-5.9,36.1-16l-3.5-3.8
			c-8.7,9.5-19.4,14.4-32.6,14.4c-23.9,0-38.9-19.6-39.4-42.9h81V121.2L909.5,121.2L909.5,121.2z"/>
		<path class="st0" d="M796.4,59.2c0,2.9-2.3,5.3-5.2,5.3c-2.7,0-5.2-2.4-5.2-5.3c0-2.9,2.5-5.3,5.2-5.3
			C794.1,54,796.4,56.3,796.4,59.2L796.4,59.2z M788.2,171.8V83.4h5.6v88.3H788.2L788.2,171.8z"/>
		<polyline class="st0" points="716.6,171.8 709.3,171.8 655.9,41.4 663,41.4 713,164.5 762.9,41.4 770,41.4 716.6,171.8 		"/>
	</g>
	<g>
		<path class="st0" d="M660.5,171.8v-60.9c0-16.8-8.9-27.5-27.5-27.5c-13.9,0-24.2,6.8-29.6,13.4V85.6h-22.3v86.2h22.3v-58
			c3.7-5.2,10.5-10.2,19.3-10.2c9.5,0,15.6,4.1,15.6,16.1v52.1H660.5"/>
		<path class="st0" d="M518.1,151.9c-13.7,0-21.4-11.5-21.4-24.9c0-13.3,7.6-24.8,21.4-24.8c13.7,0,21.5,11.5,21.5,24.8
			C539.6,140.4,531.8,151.9,518.1,151.9L518.1,151.9z M540.9,83.4v5.3c-6.4-3.8-14.1-6.6-22.9-6.6c-27.6,0-44.3,20.5-44.3,44.7
			c0,24.4,16.7,44.9,44.3,44.9c8.8,0,16.5-2.7,22.9-6.6v6.5h22.3V83.4H540.9L540.9,83.4L540.9,83.4z"/>
		<path class="st0" d="M394.5,117c1.1-8.8,7.2-19.5,21.4-19.5c15.1,0,20.8,11.1,21.4,19.5H394.5L394.5,117z M459.3,127.6
			c0-28.9-17.6-48.6-43.4-48.6c-26.4,0-44.9,20.6-44.9,46.2c0,28.3,19.9,46.4,46.3,46.4c13.5,0,27.1-4.2,35.7-12.2l-10-15
			c-5.6,5.5-15.8,8.8-23.1,8.8c-14.7,0-23.5-9.3-24.9-20.5h64.4V127.6L459.3,127.6L459.3,127.6z"/>
		<rect x="331.3" y="45.6" class="st1" width="22.8" height="126.2"/>
		<path class="st0" d="M256.7,171.8c21.7,0,38.8-9.1,51-23V102h-57.1v22.6h31.6v14.6c-4.8,4.6-14.9,9.3-25.5,9.3
			c-21.7,0-37.5-17-37.5-40c0-23,15.8-40,37.5-40c12.7,0,23,7.3,28.4,15.9l21.2-11.7c-9-14.4-24.6-27.2-49.5-27.2
			c-35,0-63.7,24.5-63.7,63C193,146.9,221.7,171.8,256.7,171.8"/>
	</g>
	<g>
		<path class="st2" d="M94.5,148.1c-10.1,0-18.7-3.7-25.9-11.1c-7.1-7.4-10.7-16.3-10.7-26.9c0-10.5,3.6-19.5,10.7-26.8
			c7.1-7.5,15.7-11.3,25.9-11.3c10.1,0,18.7,3.8,25.9,11.3c7.2,7.4,11.3,16.3,11.3,26.8v37.9H94.5L94.5,148.1z M137.7,65.3
			c-12-12.3-26.4-18.5-43.3-18.5c-16.9,0-31.2,6.2-43.1,18.5c-12,12.4-18,27.4-18,44.9c0,17.5,6,32.4,18,44.8
			c11.9,12.5,26.2,18.7,43.1,18.7h61v-63.4C155.5,92.7,149.6,77.7,137.7,65.3L137.7,65.3L137.7,65.3z"/>
	</g>
</g>
</svg>
