<?xml version="1.0" encoding="utf-8"?>
<!-- Generator: Adobe Illustrator 22.0.1, SVG Export Plug-In . SVG Version: 6.00 Build 0)  -->
<svg version="1.1" id="Layer_1" xmlns="http://www.w3.org/2000/svg" xmlns:xlink="http://www.w3.org/1999/xlink" x="0px" y="0px"
	 viewBox="0 0 1628.9 717" style="enable-background:new 0 0 1628.9 717;" xml:space="preserve">
<style type="text/css">
	.st0{fill:#231F20;stroke:#FFFFFF;stroke-width:5;stroke-miterlimit:10;}
</style>
<title>Lunic2</title>
<path class="st0" d="M262.2,134.6l-0.5-0.1L262.2,134.6L262.2,134.6z"/>
<g>
	<path d="M262.5,134.6l0.3,0c0.4,0.1,0.8,0.1,1.3,0.2c0-0.1,0-0.2,0-0.2L262.5,134.6L262.5,134.6z"/>
	<path d="M262,134.6L262,134.6l-0.2,0l0,0C261.9,134.6,262,134.6,262,134.6z"/>
	<path d="M659.7,537.7l0.2-0.3l0.6-0.5c0.8-0.7,1.4-1.7,1.8-2.8l0.2-0.4c0.2-0.4,0.3-0.7,0.4-1.1l0.1-0.3l0.2-0.3
		c21.2-36.3,35.5-75.8,42.3-117.3c7.5-45.8,5.9-91.9-4.6-137.1c-5.9-24.6-14.5-48.6-25.6-71.4c-2-4.1-7.8-5.3-11.7-3.7
		c-4.3,1.8-6.3,6.1-5.4,11.4c0.3,2,0.7,4.1,1,6.4l0,0.4c0,0.1,0.1,0.2,0.1,0.4c0,0.1,0,0.3,0,0.4l0.1,0.6c0.1,1,0.2,1.9,0.3,2.9
		c0.5,4.3,0.9,8.7,1.1,13.1c0.5,8.5,0.5,17.1,0,25.6c-0.2,4-0.5,8.1-0.9,12.1c-0.1,1.1-0.2,2.2-0.4,3.3c-0.1,0.6-0.1,1.3-0.2,1.9
		v0.1c0,0.1,0,0.4-0.1,0.8l-0.2,1.5c-0.1,0.8-0.2,1.6-0.4,2.3c-1.3,7.8-2.9,15.6-5,23.2c-2,7.5-4.4,15.1-7.2,22.4
		c-0.4,1.1-0.9,2.2-1.3,3.3c-0.3,0.7-0.6,1.4-0.8,2.1l-0.4,0.8c-0.3,0.8-0.6,1.5-1,2.2c-1.6,3.7-3.4,7.4-5.2,11
		c-3.4,6.8-7.2,13.5-11.3,19.9c-1.7,2.8-3.6,5.5-5.4,8.2c-1,1.5-2.1,3-3.2,4.4l-0.3,0.5c-0.4,0.6-0.8,1.2-1.3,1.8l-1.5,2
		c-8.8,11.3-18.6,21.7-29.2,31.1c-2.3,2-4.8,4.2-7.4,6.3l-5.4,4.3c-0.7,0.5-1.3,1-2,1.5c-5.8,4.3-12,8.3-18.2,12.1
		c-6.2,3.7-12.7,7.2-19.3,10.3c-3.3,1.6-6.2,2.9-8.9,4.1l-4.4,1.7c-2.2,0.9-4,1.5-5.7,2.1c-7.7,2.8-15.6,5.1-23.5,7.1
		c-4,1-8.1,1.9-12.1,2.6c-2,0.4-4.1,0.8-6.1,1.1l-4.8,0.7c-19,2.4-38.3,2.5-57.2,0.3c-0.4,0-0.9-0.1-1.3-0.2l-0.7-0.1l0.1-1.3
		l-0.3,1.3c-0.2,0-0.9-0.1-1.5-0.2c-0.6-0.1-1.2-0.2-1.4-0.2c-2.2-0.3-4.5-0.7-6.8-1.1c-4.5-0.8-9.1-1.8-13.5-2.9
		c-9.2-2.3-18.4-5.1-27.3-8.5c-2.2-0.8-4.4-1.7-6.5-2.6l-1-0.4c-0.5-0.2-1-0.5-1.5-0.7c-0.5-0.2-1.1-0.5-1.6-0.7
		c-3.9-1.7-7.7-3.6-11.5-5.6c-7.7-4-15.2-8.4-22.4-13.2c-3.5-2.3-7-4.8-10.3-7.3l-3.4-2.6c-1.7-1.4-3.3-2.7-4.9-4
		c-5.8-4.9-11.4-10.1-16.7-15.6l-0.5-0.5l-0.2-0.7c-3.5-16.1-5.1-32.6-4.8-49c0-16.1,2-32.2,5.7-47.9l0.2-0.8l0.6-0.5
		c2.8-2.5,5.4-4.8,8-6.9c0.9-0.7,1.8-1.5,2.7-2.2l1.7-1.3c1.5-1.1,3-2.3,5-3.7c7.4-5.4,15.3-10.3,23.3-14.8c4-2.2,8.2-4.4,12.3-6.4
		c2.1-1,4.2-2,6.3-2.9l2.6-1.1l2.1-0.8c7.5-3,15.3-5.7,23.1-8l0.8-0.2l0.7,0.3c3.4,1.2,6.8,2.4,10.1,3.7l4.6,1.9
		c2.1,0.9,4.2,1.9,6.3,2.8c8.4,3.9,16.7,8.4,24.7,13.3c14.1,8.6,27.2,18.9,38.9,30.7l0.5,0.5l0.1,0.8c0.7,3.8,1.3,7.3,1.7,10.6
		l0,0.3c0,0.2,0.1,0.7,0.2,1.1l0,0.3c0.1,1.1,0.2,2.2,0.4,3.2c0.3,2.3,0.5,4.7,0.6,7.1c0.7,9.3,0.8,18.8,0.4,28.1
		c-0.2,4.5-0.5,9.1-1,13.6c-0.1,1-0.2,2-0.3,3l0,0.2c0,0-0.2,1.9-0.3,2.3l0,0.1c-0.2,1.7-0.5,3.5-0.9,5.8c-1.5,9.1-3.5,18.2-6.1,27
		c-1.1,3.9,0.8,8.8,4.3,10.6c4,2.1,8.1,1.5,11.7-1.6c36.6-31.5,62.7-72.8,75.5-119.4c12.8-46.6,11.3-95.4-4.1-141.2
		c-8.8-25.7-21.7-49.6-38.3-71.1l-0.1-0.2c-0.4-0.6-0.7-1-1-1.5c-19.2-24.3-43.2-44.4-69.4-58.2c-31.2-16.4-65.6-23.1-99.6-19.2
		c-50.4,5.6-99.9,22.6-143.1,49.2C140,89.9,102.5,126.4,74.7,168.9l-0.1,0.2c-0.2,0.3-0.4,0.5-0.6,0.8c-0.4,0.6-0.7,1.1-1,1.6
		l-0.7,1.1c-0.1,0.2-0.3,0.4-0.4,0.6l-0.2,0.3C47.2,212.3,30.9,255,23.4,300.3c-8,48.5-5.9,97.2,6.3,144.8
		c6.5,24.9,15.8,49.1,27.7,72l0.2,0.3l0.1,0.4c0.1,0.3,0.1,0.6,0.2,0.9l0.1,0.6c0.3,1.1,0.8,2.1,1.5,2.9l0.3,0.3
		c0.3,0.5,0.7,0.9,1.1,1.3l0.3,0.3l0.2,0.4c22.3,40.4,51.8,75.4,87.9,104.1c36.1,28.7,76.9,49.6,121.2,62.2
		c25.9,7.2,52.7,11.5,79.6,12.6l0.3,0c0.7,0.1,1.4,0.2,2.1,0.1l0.2,0l0.2,0c49.4,1.7,97.6-7,143.3-25.8c33.9-14,65.2-33.1,93-56.9
		C616.9,596.9,640.6,569,659.7,537.7z M295.2,446.8c17.9,13,37.4,23.5,58,31.3c31.8,11.9,66.9,17,101.5,14.5
		c34.5-2.4,68.6-12.3,98.5-28.5c54.7-29.6,96.8-80.7,115.7-140.2c4.1-13.1,7.1-26.7,8.9-40.4l1.8-13.6l3.2,13.4
		c1.9,8,3.5,16.1,4.8,24.2c0.4,2.3,0.7,4.6,1,6.8l0,0.3c0,0.3,0.1,1.1,0.2,1.8l0.1,0.8c0.2,1.4,0.3,2.9,0.5,4.3
		c0.6,5.6,1.1,11.2,1.4,16.8c0.7,11.1,0.8,22.5,0.3,33.7c-0.2,5.5-0.6,11-1.1,16.4c-0.2,2.6-0.5,5.2-0.8,7.8l-0.6,5.3
		c-0.1,0.4-0.1,0.8-0.1,0.9l0,0.1c-3,20.9-7.9,41.6-14.8,61.6c-1.9,5.7-4.1,11.4-6.3,17c-0.2,0.5-0.4,1.1-0.7,1.6
		c-0.3,0.6-0.5,1.3-0.8,1.9c-0.4,0.9-0.8,1.8-1.2,2.7c-1.2,2.7-2.4,5.4-3.6,7.9c-4.7,10-10,19.9-15.7,29.5l-0.2,0.3l-0.3,0.3
		c-2.6,2.3-4.9,4.4-7.2,6.3c-1.4,1.2-2.8,2.3-4.2,3.4l-1.4,1.1l-2.2,1.6c-5.8,4.3-11.8,8.4-18,12.1c-6.5,4-13.2,7.6-20.1,10.9
		c-3.3,1.6-6.6,3.1-9.5,4.3l-0.7,0.3l-2.5,1c-1.9,0.7-3.8,1.5-5.7,2.2c-14.3,5.2-29.2,9.1-44.2,11.4l-1.2,0.2
		c-0.5,0.1-1.1,0.2-1.6,0.2l-0.7,0.1h-0.3l-0.8,0.1c-1.6,0.2-3.2,0.4-4.7,0.5c-4.2,0.4-8.4,0.7-12.6,0.9c-3.7,0.2-7.6,0.3-11.4,0.3
		c-3.9,0-7.8-0.1-11.7-0.3c-4-0.2-8-0.5-11.9-0.9c-1.9-0.2-3.8-0.4-5.7-0.6l-0.6,0c-0.1,0-0.1,0-0.2,0l0,0c-0.1,0-0.2,0-0.4,0
		c-0.1,0-0.1,0-0.2,0l0,0c-0.1,0-0.3-0.1-0.4-0.1c-0.9-0.1-1.8-0.3-2.8-0.4c-7.8-1.2-15.7-2.9-23.4-4.9c-7.6-2-15.1-4.4-22.5-7.2
		c-1.5-0.5-3.2-1.2-4.8-1.9c-0.9-0.3-1.8-0.7-2.7-1.1l-0.8-0.4c-4-1.8-7.7-3.5-11.3-5.3c-6.7-3.4-13.3-7.1-19.7-11.1
		c-3.2-2-6.3-4.1-9.4-6.2c-1.5-1.1-3.1-2.2-4.6-3.3l-4-3c-12.2-9.7-23.6-20.6-33.7-32.4c-1.4-1.6-2.7-3.2-4-4.8
		c-0.4-0.5-0.9-1.1-1.3-1.6l-1.4-1.9c-2.2-3-5.1-7-8-11.2c-5-7.5-9.6-15.3-13.7-23.3c-1.8-3.6-3.6-7.2-5.2-10.8l-3.8-8.5
		L295.2,446.8z M131.6,128.3c6.1-6.1,12.4-12.1,18.9-17.8l0,0c2.8-2.4,5.7-4.9,8.5-7.2c1.4-1.1,2.7-2.2,4-3.2l3.2-2.5
		c6.2-4.7,12.6-9.2,19.1-13.5c13.1-8.6,26.9-16.3,41.1-22.9c3-1.4,6.2-2.8,10.3-4.6l2.9-1.2c2.3-1,4.5-1.8,6.7-2.7
		c7.2-2.8,14.7-5.3,22.1-7.6c15.2-4.6,30.9-8.2,46.7-10.6l5-0.7c1.5-0.2,3.1-0.4,4.5-0.6l0.7-0.1c4-0.5,8.1-0.9,12.2-1.2
		c8.3-0.5,16.7-0.2,25,0.7l3.5,0.4l1.8,0.3c1.6,0.3,3.2,0.5,4.7,0.8c4.1,0.8,8.2,1.8,12.3,2.9c3.8,1.1,7.6,2.3,11.3,3.6
		c1.9,0.7,3.7,1.4,5.5,2.1l1.9,0.8l2.1,0.9c8.3,3.7,16.3,8.1,24,12.9c3.7,2.4,7.4,4.9,11,7.5c0.5,0.4,1.1,0.8,1.6,1.2l2.2,1.6
		c1.4,1.1,2.8,2.2,4.1,3.3c12.1,9.9,23.1,21.2,32.8,33.4l0.1,0.2c0.2,0.3,0.5,0.7,0.7,1l0,0c0.2,0.3,0.6,0.8,0.9,1.2
		c0.3,0.4,0.6,0.8,0.7,0.9c0.9,1.2,1.8,2.4,2.6,3.6c1.7,2.4,3.4,4.9,5.1,7.4c3.4,5.1,6.5,10.3,9.5,15.7c2.6,4.8,5.1,9.7,7.4,14.6
		c0.6,1.2,1.1,2.5,1.7,3.8c0.1,0.1,0.3,0.6,0.4,1c0.2,0.4,0.3,0.7,0.4,0.9l0,0.1c1.1,2.6,2.1,5.2,3,7.8c4,10.6,7.2,21.5,9.6,32.5
		c1.1,5,2,10.3,2.9,16.1l-0.1,0c0,0.1,0.1,0.2,0.1,0.4h0l0,0c0.1,0.7,0.2,1.5,0.3,2.5c0.2,1.4,0.3,2.8,0.5,4.3
		c0.3,2.8,0.5,5.7,0.7,8.6c0.8,12.3,0.6,24.7-0.6,37c-0.2,2.6-0.5,5.1-0.8,7.7c-0.1,1.2-0.3,2.1-0.4,2.8l0,0
		c-0.2,1.6-0.5,3.2-0.8,4.8c-1,5.5-2.1,11.1-3.5,16.5c-2.8,10.9-6.3,21.7-10.6,32.1l-0.9,2c-0.5,1.1-1,2.2-1.4,3.2
		c-1.2,2.6-2.4,5.2-3.8,7.9c-2.4,4.9-5.1,9.7-7.9,14.4c-3.2,5.4-6.7,10.8-10.3,15.9c-0.9,1.3-1.8,2.6-2.8,3.9
		c-0.2,0.3-0.5,0.6-0.7,0.9l-0.4,0.5c-0.1,0.1-0.3,0.4-0.5,0.7c-0.2,0.2-0.3,0.4-0.4,0.6c-1.5,1.9-2.9,3.7-4.4,5.5l-5.3,6.3l0.9-8.2
		c2.8-25.5,1.8-51.2-3.2-76.3c-6.5-32.1-20.2-63.6-39.5-90.9c-19.2-27.2-44.3-50.7-72.4-67.8c-27.8-16.9-59.8-28.1-92.6-32.6
		c-32.8-4.5-66.7-2.2-98,6.5c-11.4,3.2-22.6,7.3-33.4,12.1l-12.2,5.5L131.6,128.3z M54.4,445.6L53,458.8L49.5,446
		c-2.9-10.4-5.4-21.2-7.3-31.9c-0.5-2.7-0.9-5.4-1.3-7.7l0,0c-0.1-0.7-0.2-1.3-0.3-2c-0.1-0.7-0.2-1.4-0.3-2.2l-0.4-2.8
		c-0.7-6-1.3-11.9-1.7-17.8c-0.8-11.9-1-23.9-0.6-35.8c0.2-5.6,0.5-11.3,1-16.9c0.2-2.8,0.5-5.6,0.8-8.4c0.2-1.4,0.3-2.8,0.5-4.2
		l0.3-2.2c0-0.1,0-0.2,0-0.3l0-0.2c3.2-22.2,8.6-44.2,16-65.4c1.8-5.2,3.9-10.6,6.5-17l1.1-2.7c0.6-1.4,1.2-2.8,1.9-4.2
		c1.3-3,2.7-5.9,4.2-8.8c5.1-10.5,10.9-20.8,17.1-30.7l0.2-0.3l1.2-1c2.6-2.2,5.3-4.4,8-6.6l1-0.8l2.2-1.7c1.8-1.3,3.4-2.5,4.9-3.5
		c6.1-4.3,12.5-8.3,19-12c6.4-3.6,13-6.9,19.7-9.9l3.3-1.5l5.1-2c3.5-1.3,7-2.6,10.5-3.8c7.4-2.5,15.1-4.6,22.7-6.3
		c3.4-0.7,6.9-1.5,10.5-2.1c1.7-0.3,3.4-0.6,5.1-0.8l4.7-0.6c16.2-1.9,32.6-2.1,48.8-0.7c1.8,0.2,3.6,0.3,5.4,0.5l2.7,0.3l0,0
		c0.1,0,0.2,0,0.3,0l0.2,0c0,0,0,0,0,0l0,0.2l0-0.2l0.6,0.1c4.7,0.7,8.9,1.4,12.8,2.2c7.6,1.5,15.2,3.4,22.6,5.7
		c7.1,2.2,14.2,4.7,21.1,7.6l4,1.8c1.8,0.8,3.5,1.6,5.2,2.4c3.6,1.7,7.2,3.6,10.7,5.5c6.8,3.7,13.5,7.8,19.8,12.1
		c3,2,5.9,4.1,8.8,6.3l3,2.3c1.6,1.4,3.2,2.7,4.8,4c11.9,10,22.8,21.2,32.5,33.4l2.3,3c1.2,1.7,2.5,3.4,4.1,5.6
		c2.4,3.4,4.8,6.9,7,10.5c4.8,7.6,9.2,15.6,13.1,23.8l0.8,1.8c0.7,1.6,1.5,3.3,2.2,4.9c0.3,0.6,0.5,1.2,0.8,1.8
		c0.8,1.9,1,2.5,1.1,2.8c0.3,0.8,0.6,1.5,0.9,2.3l2.9,7.8l-6.7-4.8c-20.7-14.9-43.5-26.5-67.8-34.4c-31.8-10.2-66.5-13.7-100.2-10
		c-33.8,3.7-66.9,14.5-95.7,31.3c-53.7,31.5-93,81.8-110.7,141.5C58.6,416.9,55.8,431.2,54.4,445.6z M283.7,674.8
		c-11.3-2.9-22.5-6.4-33.3-10.4c-3-1.1-5.4-2-7.5-2.9l-6.4-2.6c-5.3-2.3-10.5-4.7-15.4-7c-10.1-5-20-10.5-29.6-16.4
		c-4.9-3-9.8-6.2-14.5-9.5c-2.1-1.5-4.3-3-6.4-4.6c-1.2-0.9-2.4-1.8-3.6-2.6l-0.1-0.1l-1.5-1.2l-1.9-1.4c-0.2-0.2-0.5-0.4-0.7-0.6
		c-0.3-0.2-0.5-0.4-0.8-0.6c-1.2-1-2.4-1.9-3.5-2.8c-2.1-1.7-4.2-3.5-6.4-5.4c-4.4-3.7-8.7-7.6-12.8-11.6
		c-8.1-7.7-15.9-15.8-23.2-24.3c-2-2.4-4-4.8-6-7.2c-1-1.2-1.9-2.3-2.8-3.5l-2.1-2.7c-4-5.3-7.5-10.2-10.7-14.8
		c-6.8-10-13.2-20.5-18.9-31.2l-0.2-0.3l-0.1-0.4c-0.3-1.8-0.6-3.6-0.9-5.4l-0.4-2.5l0,0c-0.1-0.4-0.2-0.9-0.2-1.2
		c-0.1-0.5-0.2-1.1-0.2-1.2c-0.5-4.2-0.9-8.3-1.2-12.4c-0.6-8.5-0.8-17.1-0.5-25.6c0.4-14.8,2.4-29.7,6.1-44.1
		c7.1-29.4,18.9-54.6,37-79.5c0.6-0.8,1.2-1.6,1.8-2.4c0.4-0.5,0.8-1,1.1-1.5l0.5-0.6l1.3-1.7c2.4-3,4.8-5.9,7.3-8.7
		c4.6-5.3,9.6-10.4,14.7-15.2c5-4.8,10.6-9.5,16.4-14.2l0.7-0.5l0,0c0.1,0,0.1-0.1,0.2-0.1l0,0l0,0c0.1-0.1,0.3-0.2,0.4-0.3l1-0.8
		c1.1-0.8,2.2-1.6,3.3-2.4l0.7-0.5c3.1-2.2,6.3-4.4,9.5-6.4c5.9-3.8,12.1-7.4,18.4-10.7c3.2-1.7,6.5-3.3,9.8-4.9l6.4-2.9l2.1-0.9
		c14.8-6,30.3-10.4,46-13.2c2.6-0.5,5.1-0.8,7.4-1.2l1-0.1c1.2-0.1,2.3-0.3,3.4-0.4c4.6-0.5,9.3-0.9,13.9-1.2
		c9.5-0.5,19-0.4,28.5,0.2c4.7,0.3,9.4,0.8,14.1,1.4l9.1,1.1l-7.9,3.7c-22.8,10.7-43.9,24.7-62.5,41.7l-0.1,0.1
		c-0.2,0.2-0.5,0.4-0.7,0.6l-0.1,0.1c-24.9,23.2-45.1,52.3-58.3,84c-13.3,31.8-19.8,66.6-18.7,100.6c2,64.5,30.2,126.5,77.3,170.1
		c7.3,6.8,15.2,13.2,23.3,19l10.6,7.6L283.7,674.8z M580.4,603.2c-4.2,3.7-8.6,7.4-13,10.9c-0.7,0.6-1.4,1.1-2.2,1.7l-2.9,2.2
		c-2.4,1.8-4.7,3.5-6.8,5c-18.6,13.3-38.6,24.8-59.5,34.1l-5.5,2.4c-3.1,1.3-5.9,2.4-8.5,3.4c-5.3,2-10.8,4-16.3,5.8
		c-11,3.6-22.3,6.6-33.7,9.1c-6.4,1.3-12.9,2.5-19.4,3.5c-1.6,0.2-3.2,0.5-4.8,0.7l-3.4,0.4c-3.1,0.4-6.3,0.7-9.4,1
		c-10.2,0.9-20.5,1.4-30.8,1.4c-3.5,0-7.1-0.1-10.6-0.2l-0.4,0l-0.4-0.1c-3-1-6-2.2-9-3.4l-3.1-1.2c-1.6-0.7-3.3-1.4-4.9-2.2
		c-6.6-3-13-6.3-19.3-9.9c-6-3.5-12-7.3-17.8-11.3c-2.6-1.8-5.1-3.6-7.6-5.5l-1-0.8c-0.7-0.6-1.4-1.1-2.1-1.7
		c-1.4-1.1-3.1-2.5-4.8-4c-10.6-9.1-20.5-19.1-29.3-29.9c-0.5-0.7-1.1-1.3-1.6-2c-0.4-0.6-0.9-1.1-1.3-1.7l-0.4-0.6l-1.5-2
		c-2.2-3-4.3-6-6.4-9c-4-5.9-7.7-12-11-18c-3.7-6.6-7.1-13.5-10-20.5c-0.1-0.3-0.6-1.4-0.7-1.7c-0.3-0.8-0.7-1.7-1-2.5l-0.1-0.2
		c-0.7-1.9-1.4-3.7-2.1-5.6c-1.3-3.7-2.6-7.5-3.8-11.3c-2.3-7.6-4.3-15.5-5.8-23.4c-0.7-3.5-1.3-7.3-2-11.6l0-0.4h0c0,0,0-0.1,0-0.1
		c0-0.2-0.1-0.3-0.1-0.4c-0.1-1.1-0.3-2.3-0.4-3.6c-0.2-2-0.4-4.1-0.6-6.1c-2.9-34.3,1.2-65.2,12.9-97.3c0.7-2.1,1.5-4.1,2.3-6.2
		l1.3-3.3c0.2-0.5,0.5-1.1,0.7-1.6c1.7-4,3.6-7.9,5.6-11.8c4.1-8,8.6-15.8,13.6-23.3c2.6-3.9,5.3-7.7,8.1-11.5l5.1-6.9l-0.6,8.5
		c-1.9,24.5-0.1,49.1,5.3,73.1c7.4,32.3,22,63.6,42.2,90.6c20.2,27,46.1,49.9,75,66.1c28.3,15.9,60.6,26.2,93.4,29.7
		c32.9,3.5,66.6,0.2,97.5-9.4c10.7-3.3,21.2-7.5,31.3-12.3l12.2-5.8l-9.4,9.8C595.1,589.6,587.9,596.6,580.4,603.2L580.4,603.2z"/>
</g>
<path d="M1313.1,171.9h10.5v215.8c-5.2,0-10.8,0.2-16.4-0.2c-1.2-0.1-2.6-2.2-3.5-3.7c-29.5-49-58.9-98-88.4-147
	c-9.8-16.4-19.7-32.8-29.6-49.1c-0.7-1.2-1.6-2.4-3-4.7v204.4h-10.9V171.8c5.2,0,10.4-0.3,15.5,0.2c1.6,0.2,3.4,2.3,4.4,3.9
	c19.4,32,38.7,64,58,96.1c20.1,33.3,40.1,66.7,60.2,100c0.8,1.3,1.7,2.6,3.2,4.8L1313.1,171.9z"/>
<path d="M1610.6,239.7h-10.5c-1.7-5.7-3.2-11.4-5.2-17c-12.2-32.7-41.6-48.5-75.1-45.2c-35.5,3.5-58.6,24.1-70.6,56.5
	c-12.5,33.6-11.6,67.8,2.7,100.7c19.9,46,66.9,56.7,104.6,41.6c24.1-9.7,36.2-29.6,42.1-54c0.4-1.7,0.8-3.5,1.3-5.5h11
	c-1.1,10.5-4.1,20.8-8.9,30.2c-14.3,28.5-38.1,42.4-69.3,44.8c-24.3,1.9-46.7-3.1-66-18.6c-18.9-15.1-29.4-35.4-34.3-58.6
	c-6.5-30.3-5.4-60.3,7.4-89c14.4-32.2,38.9-52.6,74.2-57.3c29.6-4,56.7,2.2,77.5,25.8C1601.4,205.5,1610.1,225.9,1610.6,239.7z"/>
<path d="M975,171.9h10.7v5.8c0,45.3-0.1,90.6,0.1,135.9c0,9.1,0.5,18.4,2.4,27.3c5,23.5,22.8,38.5,46.8,40.9
	c13.2,1.3,26.3,1,38.9-3.8c19.5-7.4,30.1-21.8,32.7-42.1c0.9-7.8,1.3-15.6,1.3-23.4c0.1-44.6,0.1-89.3,0.1-133.9v-6.3h11.6v5.8
	c0,45.1,0.1,90.3-0.2,135.4c0,10.5-0.9,20.9-2.8,31.2c-3.9,20.1-16,34.3-35.1,41.4c-24.9,9.2-50,9.2-74.2-2.4
	c-19.7-9.4-30.8-26.4-31.3-47.6c-1.3-54.1-1-108.2-1.3-162.4C974.7,173.1,974.8,172.5,975,171.9z"/>
<path d="M804.6,387.5V172.1h10.9v205.9h125v9.6H804.6z"/>
<path d="M1388.9,387.5H1378V172h10.9L1388.9,387.5z"/>
<path d="M1492.5,508.7h-8.5c-0.1-1.8-0.3-3.6-0.4-5.3c-0.9-17.4-11.8-23.1-26.9-21.1c-3,0.4-5.8,1.3-8.5,2.7
	c-6.6,3.4-9.1,9.1-8.8,16.5c0.2,6.9,3.1,12.1,9.3,14.6c5.6,2.2,11.8,3.2,17.7,4.7c2.7,0.7,5.5,1.1,8.2,1.9
	c14.3,4.4,20.5,13.1,19.4,27.3c-1.1,14.7-9.2,23.3-23.6,25.9c-9.6,1.7-18.9,1.2-27.6-3.6c-9.5-5.2-14.9-17.3-13.4-29.2h8.1
	c0.4,2.9,0.7,5.9,1.4,8.8c3.1,12.5,14.6,19.2,28.2,16.5c13.2-2.7,18.1-9,17.6-22.2c-0.3-7.9-4.9-12.7-11.8-15.1
	c-5.9-2-12.2-2.8-18.3-4.2c-10.1-2.4-20.1-5.7-23.1-17c-4.8-18.1,3.7-31.9,21.2-34.8c6.5-1,13.2-0.9,19.7,0.2
	c11.8,2.1,19.3,11.7,20.1,24C1492.7,502.2,1492.5,505.2,1492.5,508.7z"/>
<path d="M1104.1,508.6h-8.4c-0.1-2.2-0.1-4.2-0.4-6.1c-2.2-16.4-12.1-23.2-28.4-19.9c-12.6,2.6-18.2,10.9-15.5,23.2
	c1.1,5.4,5.1,9.6,10.4,11c7.1,2.1,14.5,3.3,21.7,5.1c13.3,3.2,21.2,11.1,21.9,21.9c1.3,19.6-9.2,31.7-28.8,32.8
	c-5,0.3-10-0.2-14.8-1.3c-14.2-3.5-22.5-16.3-21-32.1h8.2c0.4,2.6,0.9,5,1.3,7.5c1.4,8.4,6,14.5,14.2,16.9
	c9.3,2.7,18.6,1.9,26.3-4.7s9-25.8-4.7-31c-6.3-2.4-13.1-3.4-19.6-5c-2.4-0.6-4.8-1.2-7.2-2c-12.8-4.5-18.8-13.2-17.8-26
	c0.9-12.4,9.2-21.6,21.7-23.9c10.6-2,21-1.8,30.3,4.4C1101.7,484.7,1105.5,495.7,1104.1,508.6z"/>
<path d="M1311.7,574.7c-9.1,1.1-9.1,1.1-11.2-6.6c-1.7-6-3.4-12-5.2-18.4c-11.5,0-22.8-0.1-34.1,0.1c-1.2,0-3.1,1.7-3.5,3
	c-1.7,4.8-2.8,9.8-4.2,14.8c-2.3,8.2-2.3,8.2-11.7,7c4.3-14.8,8.5-29.5,12.7-44.2c5-17.3,10.1-34.6,14.8-52c0.9-3.4,2.3-4.1,5.4-4.1
	c8.6,0.1,8.6,0,11,8.4c8.4,29.5,16.8,58.9,25.2,88.3C1311.2,572.2,1311.4,573.3,1311.7,574.7z M1260.6,541.5h32.4
	c-5.3-18.9-10.4-37.3-15.6-55.7l-1.3,0.1C1271,504.3,1265.8,522.7,1260.6,541.5L1260.6,541.5z"/>
<path d="M1142.7,475.6h8.8v5.3c0,21.1,0,42.3,0,63.4c0,2,0,4,0.3,6c2.2,15.9,12,19.7,27.7,18.1c12.3-1.2,18-8.3,18.1-20.8
	c0.1-22,0.1-44,0.1-65.9v-5.8h8.9v5.5c0,22,0.1,44-0.1,65.9c-0.1,3.8-0.6,7.6-1.7,11.3c-3.2,12.4-12.6,17-24.1,17.8
	c-6.5,0.5-12.9,0-19.3-1.4c-11.8-2.7-18-10.3-18.5-25C1142.1,525.4,1142.7,500.8,1142.7,475.6z"/>
<path d="M887.4,475.9c8.9-1.1,8.9-1.1,11.1,6.8c7.4,26.7,14.8,53.3,22.2,79.9c0.4,1.1,0.8,2.1,1.3,3.1c0.9-2.7,1.7-4.6,2.3-6.7
	c7.1-25.3,14.2-50.7,21.3-76c2.2-7.9,2.2-8,11.2-7.2c-0.1,1.4-0.4,2.7-0.7,4.1c-8.8,30.7-17.7,61.4-26.3,92.2
	c-1,3.5-2.5,4.6-5.8,4.3c-1.8-0.2-3.7,0.3-5.5-0.2c-1.3-0.3-3.3-1.3-3.6-2.4c-9.2-32.1-18.4-64.3-27.4-96.5
	C887.3,476.8,887.3,476.4,887.4,475.9z"/>
<path d="M1347.8,475.7h8.6v91.5h42v7.7h-50.6L1347.8,475.7z"/>
<path d="M1002.2,574.8h-8.3v-99h8.3V574.8z"/>
</svg>
